<svg width="136" height="60" viewBox="0 0 136 60" fill="none" xmlns="http://www.w3.org/2000/svg">
<g id="Group 8">
<g id="icon-brand" clip-path="url(#clip0)">
<g id="Group">
<g id="Group_2">
<g id="Group_3">
<path id="Vector" d="M56.3152 16.5918C50.652 3.90009 36.4905 -2.67569 22.8284 1.02541C8.99746 4.8566 -0.336515 18.0689 1.49939 32.7679C3.23591 47.8971 16.1121 59.4969 31.3961 59.9991C31.4152 59.9996 31.4345 60 31.4537 60C31.454 60 31.899 59.9998 31.899 59.9998C31.9234 59.9998 31.9478 59.9993 31.9721 59.9982C35.8483 59.8349 38.869 56.5485 38.7057 52.6723C38.5421 48.7868 35.2658 45.7759 31.3799 45.9387C22.5025 46.3123 14.5123 39.9052 12.7909 31.0343C12.7896 31.028 12.7884 31.0217 12.7872 31.0153C10.901 21.8387 16.2333 12.7523 25.4662 9.40709C35.1867 5.97002 45.84 10.135 50.7992 19.3118C50.8014 19.3158 50.8036 19.3197 50.8058 19.3237C56.0095 28.7775 53.3412 40.481 44.4607 47.1522C43.7053 47.7197 43.5337 48.7831 44.0723 49.5595C44.6109 50.3359 45.6665 50.5478 46.4632 50.0389C51.894 46.5687 55.8732 41.2812 57.668 35.1503C59.4562 29.0417 58.9759 22.4513 56.3152 16.5918V16.5918Z" fill="white"/>
</g>
</g>
</g>
</g>
<g id="COMICSTUDIO">
<path d="M34.788 37.162C33.348 37.162 32.334 36.736 31.746 35.884C31.158 35.02 30.864 33.832 30.864 32.32V27.172C30.864 25.576 31.152 24.364 31.728 23.536C32.304 22.708 33.324 22.294 34.788 22.294C36.096 22.294 37.032 22.648 37.596 23.356C38.172 24.064 38.46 25.108 38.46 26.488V27.64H36.534V26.614C36.534 25.942 36.504 25.426 36.444 25.066C36.384 24.706 36.228 24.418 35.976 24.202C35.736 23.986 35.346 23.878 34.806 23.878C34.254 23.878 33.84 23.998 33.564 24.238C33.3 24.466 33.126 24.79 33.042 25.21C32.958 25.618 32.916 26.17 32.916 26.866V32.644C32.916 33.388 32.976 33.97 33.096 34.39C33.216 34.81 33.408 35.11 33.672 35.29C33.948 35.47 34.326 35.56 34.806 35.56C35.322 35.56 35.706 35.446 35.958 35.218C36.21 34.99 36.366 34.678 36.426 34.282C36.498 33.886 36.534 33.346 36.534 32.662V31.582H38.46V32.662C38.46 34.114 38.184 35.23 37.632 36.01C37.092 36.778 36.144 37.162 34.788 37.162ZM45.2937 37.162C43.8657 37.162 42.8397 36.76 42.2157 35.956C41.6037 35.14 41.2977 33.964 41.2977 32.428V26.902C41.2977 25.39 41.6097 24.244 42.2337 23.464C42.8577 22.684 43.8777 22.294 45.2937 22.294C46.7097 22.294 47.7237 22.69 48.3357 23.482C48.9597 24.262 49.2717 25.402 49.2717 26.902V32.446C49.2717 33.958 48.9597 35.122 48.3357 35.938C47.7117 36.754 46.6977 37.162 45.2937 37.162ZM45.2937 35.56C46.0497 35.56 46.5597 35.338 46.8237 34.894C47.0877 34.45 47.2197 33.778 47.2197 32.878V26.488C47.2197 25.6 47.0877 24.946 46.8237 24.526C46.5597 24.094 46.0497 23.878 45.2937 23.878C44.5257 23.878 44.0097 24.094 43.7457 24.526C43.4817 24.946 43.3497 25.6 43.3497 26.488V32.878C43.3497 33.778 43.4817 34.45 43.7457 34.894C44.0097 35.338 44.5257 35.56 45.2937 35.56ZM52.6748 22.42H54.6728L57.2468 34.246L59.8388 22.42H61.8188L62.0888 37H60.4508L60.2888 26.416L57.8228 37H56.6708L54.2228 26.416L54.0608 37H52.4048L52.6748 22.42ZM65.6016 22.42H67.5996V37H65.6016V22.42ZM74.7825 37.162C73.3425 37.162 72.3285 36.736 71.7405 35.884C71.1525 35.02 70.8585 33.832 70.8585 32.32V27.172C70.8585 25.576 71.1465 24.364 71.7225 23.536C72.2985 22.708 73.3185 22.294 74.7825 22.294C76.0905 22.294 77.0265 22.648 77.5905 23.356C78.1665 24.064 78.4545 25.108 78.4545 26.488V27.64H76.5285V26.614C76.5285 25.942 76.4985 25.426 76.4385 25.066C76.3785 24.706 76.2225 24.418 75.9705 24.202C75.7305 23.986 75.3405 23.878 74.8005 23.878C74.2485 23.878 73.8345 23.998 73.5585 24.238C73.2945 24.466 73.1205 24.79 73.0365 25.21C72.9525 25.618 72.9105 26.17 72.9105 26.866V32.644C72.9105 33.388 72.9705 33.97 73.0905 34.39C73.2105 34.81 73.4025 35.11 73.6665 35.29C73.9425 35.47 74.3205 35.56 74.8005 35.56C75.3165 35.56 75.7005 35.446 75.9525 35.218C76.2045 34.99 76.3605 34.678 76.4205 34.282C76.4925 33.886 76.5285 33.346 76.5285 32.662V31.582H78.4545V32.662C78.4545 34.114 78.1785 35.23 77.6265 36.01C77.0865 36.778 76.1385 37.162 74.7825 37.162ZM85.0001 37.162C83.7761 37.162 82.8401 36.784 82.1921 36.028C81.5561 35.272 81.2021 34.234 81.1301 32.914L82.9301 32.428C82.9901 33.364 83.1701 34.12 83.4701 34.696C83.7821 35.272 84.2921 35.56 85.0001 35.56C85.5281 35.56 85.9241 35.416 86.1881 35.128C86.4641 34.828 86.6021 34.402 86.6021 33.85C86.6021 33.25 86.4761 32.752 86.2241 32.356C85.9721 31.96 85.5701 31.522 85.0181 31.042L82.5701 28.882C82.0781 28.45 81.7181 27.988 81.4901 27.496C81.2741 26.992 81.1661 26.38 81.1661 25.66C81.1661 24.592 81.4721 23.764 82.0841 23.176C82.6961 22.588 83.5301 22.294 84.5861 22.294C85.7381 22.294 86.6081 22.6 87.1961 23.212C87.7841 23.824 88.1381 24.772 88.2581 26.056L86.5301 26.524C86.4701 25.672 86.3021 25.018 86.0261 24.562C85.7621 24.094 85.2821 23.86 84.5861 23.86C84.0701 23.86 83.6741 23.998 83.3981 24.274C83.1221 24.538 82.9841 24.934 82.9841 25.462C82.9841 25.894 83.0561 26.26 83.2001 26.56C83.3441 26.848 83.5901 27.142 83.9381 27.442L86.4041 29.602C87.0401 30.166 87.5441 30.778 87.9161 31.438C88.3001 32.098 88.4921 32.848 88.4921 33.688C88.4921 34.756 88.1681 35.602 87.5201 36.226C86.8721 36.85 86.0321 37.162 85.0001 37.162ZM92.8419 23.932H90.3759V22.42H97.2699V23.932H94.8759V37H92.8419V23.932ZM103.607 37.162C102.587 37.162 101.789 36.958 101.213 36.55C100.649 36.142 100.259 35.572 100.043 34.84C99.8275 34.108 99.7195 33.19 99.7195 32.086V22.42H101.663V32.176C101.663 33.28 101.789 34.12 102.041 34.696C102.305 35.272 102.827 35.56 103.607 35.56C104.387 35.56 104.903 35.272 105.155 34.696C105.419 34.12 105.551 33.28 105.551 32.176V22.42H107.477V32.086C107.477 33.19 107.369 34.108 107.153 34.84C106.937 35.572 106.547 36.142 105.983 36.55C105.419 36.958 104.627 37.162 103.607 37.162ZM110.789 22.42H113.957C115.529 22.42 116.639 22.78 117.287 23.5C117.947 24.22 118.277 25.342 118.277 26.866V32.23C118.277 33.838 117.953 35.038 117.305 35.83C116.669 36.61 115.607 37 114.119 37H110.789V22.42ZM113.975 35.542C114.683 35.542 115.193 35.404 115.505 35.128C115.829 34.852 116.027 34.48 116.099 34.012C116.183 33.532 116.225 32.812 116.225 31.852V27.118C116.225 26.29 116.171 25.66 116.063 25.228C115.967 24.784 115.757 24.46 115.433 24.256C115.109 24.04 114.605 23.932 113.921 23.932H112.823V35.542H113.975ZM121.559 22.42H123.557V37H121.559V22.42ZM130.812 37.162C129.384 37.162 128.358 36.76 127.734 35.956C127.122 35.14 126.816 33.964 126.816 32.428V26.902C126.816 25.39 127.128 24.244 127.752 23.464C128.376 22.684 129.396 22.294 130.812 22.294C132.228 22.294 133.242 22.69 133.854 23.482C134.478 24.262 134.79 25.402 134.79 26.902V32.446C134.79 33.958 134.478 35.122 133.854 35.938C133.23 36.754 132.216 37.162 130.812 37.162ZM130.812 35.56C131.568 35.56 132.078 35.338 132.342 34.894C132.606 34.45 132.738 33.778 132.738 32.878V26.488C132.738 25.6 132.606 24.946 132.342 24.526C132.078 24.094 131.568 23.878 130.812 23.878C130.044 23.878 129.528 24.094 129.264 24.526C129 24.946 128.868 25.6 128.868 26.488V32.878C128.868 33.778 129 34.45 129.264 34.894C129.528 35.338 130.044 35.56 130.812 35.56Z" fill="white"/>
<path d="M31.746 35.884L29.2659 37.5719L29.2714 37.58L29.2769 37.588L31.746 35.884ZM31.728 23.536L29.2653 21.8228L29.2653 21.8228L31.728 23.536ZM37.596 23.356L35.2495 25.2252L35.2591 25.2373L35.2689 25.2493L37.596 23.356ZM38.46 27.64V30.64H41.46V27.64H38.46ZM36.534 27.64H33.534V30.64H36.534V27.64ZM36.444 25.066L39.4032 24.5728L39.4032 24.5728L36.444 25.066ZM35.976 24.202L33.9691 26.4319L33.9961 26.4562L34.0236 26.4798L35.976 24.202ZM33.564 24.238L35.5249 26.5085L35.5325 26.5018L33.564 24.238ZM33.042 25.21L35.9804 25.815L35.9821 25.8067L35.9837 25.7983L33.042 25.21ZM33.096 34.39L35.9806 33.5658L35.9806 33.5658L33.096 34.39ZM33.672 35.29L31.982 37.7687L32.0074 37.786L32.0332 37.8028L33.672 35.29ZM35.958 35.218L37.9707 37.4426L37.9707 37.4426L35.958 35.218ZM36.426 34.282L33.4744 33.7453L33.4665 33.7889L33.4599 33.8326L36.426 34.282ZM36.534 31.582V28.582H33.534V31.582H36.534ZM38.46 31.582H41.46V28.582H38.46V31.582ZM37.632 36.01L35.1832 34.277L35.1779 34.2845L37.632 36.01ZM34.788 34.162C34.3496 34.162 34.1539 34.0953 34.1095 34.0767C34.0919 34.0693 34.107 34.0734 34.1377 34.0979C34.1696 34.1234 34.1969 34.1536 34.2151 34.18L29.2769 37.588C30.6265 39.5435 32.7799 40.162 34.788 40.162V34.162ZM34.2261 34.1961C34.097 34.0064 33.864 33.4864 33.864 32.32H27.864C27.864 34.1776 28.219 36.0336 29.2659 37.5719L34.2261 34.1961ZM33.864 32.32V27.172H27.864V32.32H33.864ZM33.864 27.172C33.864 25.8595 34.1144 25.3589 34.1907 25.2492L29.2653 21.8228C28.1896 23.3691 27.864 25.2925 27.864 27.172H33.864ZM34.1907 25.2492C34.1617 25.291 34.1241 25.3303 34.0857 25.3602C34.0489 25.3889 34.0316 25.393 34.0533 25.3843C34.1079 25.3621 34.3222 25.294 34.788 25.294V19.294C32.814 19.294 30.6263 19.8664 29.2653 21.8228L34.1907 25.2492ZM34.788 25.294C35.1849 25.294 35.3672 25.3494 35.4097 25.3655C35.4264 25.3718 35.4078 25.3668 35.3697 25.3398C35.3302 25.3118 35.2872 25.2726 35.2495 25.2252L39.9425 21.4868C38.5895 19.7884 36.5863 19.294 34.788 19.294V25.294ZM35.2689 25.2493C35.2358 25.2086 35.46 25.4598 35.46 26.488H41.46C41.46 24.7562 41.1082 22.9194 39.9231 21.4627L35.2689 25.2493ZM35.46 26.488V27.64H41.46V26.488H35.46ZM38.46 24.64H36.534V30.64H38.46V24.64ZM39.534 27.64V26.614H33.534V27.64H39.534ZM39.534 26.614C39.534 25.8896 39.5041 25.1784 39.4032 24.5728L33.4848 25.5592C33.5039 25.6736 33.534 25.9944 33.534 26.614H39.534ZM39.4032 24.5728C39.2398 23.5923 38.7694 22.6451 37.9284 21.9242L34.0236 26.4798C33.8749 26.3523 33.7432 26.1917 33.6441 26.0088C33.547 25.8295 33.5032 25.6696 33.4848 25.5592L39.4032 24.5728ZM37.9829 21.9721C36.9244 21.0195 35.6237 20.878 34.806 20.878V26.878C34.8896 26.878 34.8389 26.8879 34.7029 26.8502C34.5607 26.8108 34.2709 26.7035 33.9691 26.4319L37.9829 21.9721ZM34.806 20.878C33.8864 20.878 32.6366 21.0689 31.5955 21.9742L35.5325 26.5018C35.2885 26.714 35.0539 26.8096 34.9167 26.8494C34.7886 26.8865 34.7377 26.878 34.806 26.878V20.878ZM31.6031 21.9675C30.7277 22.7236 30.2845 23.7004 30.1003 24.6217L35.9837 25.7983C35.977 25.832 35.9524 25.9338 35.8785 26.0714C35.8016 26.2146 35.6852 26.37 35.5249 26.5085L31.6031 21.9675ZM30.1036 24.605C29.9605 25.3002 29.916 26.0825 29.916 26.866H35.916C35.916 26.2575 35.9555 25.9358 35.9804 25.815L30.1036 24.605ZM29.916 26.866V32.644H35.916V26.866H29.916ZM29.916 32.644C29.916 33.5006 29.9797 34.4031 30.2114 35.2142L35.9806 33.5658C35.9819 33.5705 35.9628 33.5018 35.9452 33.3309C35.9281 33.1651 35.916 32.9393 35.916 32.644H29.916ZM30.2114 35.2142C30.4535 36.0616 30.9572 37.0699 31.982 37.7687L35.362 32.8113C35.8589 33.1501 35.9785 33.5584 35.9806 33.5658L30.2114 35.2142ZM32.0332 37.8028C32.9716 38.4148 33.9957 38.56 34.806 38.56V32.56C34.7476 32.56 34.7728 32.554 34.8574 32.5741C34.9452 32.595 35.1132 32.6483 35.3108 32.7772L32.0332 37.8028ZM34.806 38.56C35.6922 38.56 36.9417 38.3736 37.9707 37.4426L33.9453 32.9934C34.2064 32.7572 34.4653 32.6466 34.6272 32.5986C34.7788 32.5536 34.8535 32.56 34.806 32.56V38.56ZM37.9707 37.4426C38.8239 36.6707 39.2479 35.6837 39.3921 34.7314L33.4599 33.8326C33.47 33.7653 33.4993 33.6342 33.5807 33.4714C33.6649 33.3029 33.7875 33.1362 33.9453 32.9934L37.9707 37.4426ZM39.3776 34.8187C39.4964 34.1652 39.534 33.42 39.534 32.662H33.534C33.534 33.272 33.4996 33.6068 33.4744 33.7453L39.3776 34.8187ZM39.534 32.662V31.582H33.534V32.662H39.534ZM36.534 34.582H38.46V28.582H36.534V34.582ZM35.46 31.582V32.662H41.46V31.582H35.46ZM35.46 32.662C35.46 33.7962 35.2342 34.2048 35.1832 34.277L40.0808 37.743C41.1338 36.2552 41.46 34.4318 41.46 32.662H35.46ZM35.1779 34.2845C35.2157 34.2307 35.2635 34.1809 35.314 34.1418C35.3629 34.104 35.3944 34.0916 35.3897 34.0935C35.3693 34.1017 35.1989 34.162 34.788 34.162V40.162C36.6587 40.162 38.7627 39.6176 40.0861 37.7355L35.1779 34.2845ZM42.2157 35.956L39.8157 37.756L39.8305 37.7758L39.8457 37.7954L42.2157 35.956ZM42.2337 23.464L39.8911 21.5899L39.8911 21.5899L42.2337 23.464ZM48.3357 23.482L45.9618 25.3163L45.9773 25.3363L45.9931 25.3561L48.3357 23.482ZM48.3357 35.938L45.9526 34.1156L45.9526 34.1156L48.3357 35.938ZM46.8237 34.894L49.4023 36.4272L49.4023 36.4272L46.8237 34.894ZM46.8237 24.526L44.2638 26.0904L44.2737 26.1065L44.2838 26.1225L46.8237 24.526ZM43.7457 24.526L46.2856 26.1225L46.2957 26.1065L46.3055 26.0903L43.7457 24.526ZM43.7457 34.894L46.3243 33.3608L46.3243 33.3608L43.7457 34.894ZM45.2937 34.162C44.8487 34.162 44.6256 34.0978 44.5476 34.0673C44.4949 34.0466 44.5389 34.0564 44.5856 34.1166L39.8457 37.7954C41.2429 39.5955 43.334 40.162 45.2937 40.162V34.162ZM44.6157 34.156C44.5459 34.0629 44.2977 33.6265 44.2977 32.428H38.2977C38.2977 34.3015 38.6615 36.2171 39.8157 37.756L44.6157 34.156ZM44.2977 32.428V26.902H38.2977V32.428H44.2977ZM44.2977 26.902C44.2977 25.7372 44.5478 25.3736 44.5763 25.3381L39.8911 21.5899C38.6715 23.1144 38.2977 25.0428 38.2977 26.902H44.2977ZM44.5763 25.3381C44.524 25.4034 44.4789 25.4113 44.5381 25.3887C44.6213 25.3569 44.8486 25.294 45.2937 25.294V19.294C43.3651 19.294 41.294 19.8363 39.8911 21.5899L44.5763 25.3381ZM45.2937 25.294C45.735 25.294 45.9529 25.3574 46.0248 25.3855C46.0565 25.3978 46.0536 25.4007 46.0315 25.3846C46.0081 25.3675 45.9825 25.3431 45.9618 25.3163L50.7095 21.6477C49.3201 19.8496 47.2322 19.294 45.2937 19.294V25.294ZM45.9931 25.3561C46.0243 25.3951 46.2717 25.756 46.2717 26.902H52.2717C52.2717 25.048 51.895 23.1289 50.6783 21.6079L45.9931 25.3561ZM46.2717 26.902V32.446H52.2717V26.902H46.2717ZM46.2717 32.446C46.2717 33.5976 46.0268 34.0186 45.9526 34.1156L50.7187 37.7604C51.8925 36.2254 52.2717 34.3184 52.2717 32.446H46.2717ZM45.9526 34.1156C45.9638 34.1009 45.9809 34.0837 45.9988 34.0703C46.0158 34.0576 46.0166 34.0611 45.9873 34.0728C45.9218 34.0992 45.7163 34.162 45.2937 34.162V40.162C47.265 40.162 49.3362 39.5683 50.7187 37.7603L45.9526 34.1156ZM45.2937 38.56C46.572 38.56 48.3707 38.1621 49.4023 36.4272L44.2451 33.3608C44.4596 32.9999 44.7709 32.7624 45.0458 32.6428C45.2782 32.5416 45.399 32.56 45.2937 32.56V38.56ZM49.4023 36.4272C50.0781 35.2906 50.2197 33.9683 50.2197 32.878H44.2197C44.2197 33.1906 44.196 33.3818 44.1769 33.4788C44.1568 33.5811 44.1549 33.5124 44.2451 33.3608L49.4023 36.4272ZM50.2197 32.878V26.488H44.2197V32.878H50.2197ZM50.2197 26.488C50.2197 25.4216 50.0829 24.0739 49.3636 22.9295L44.2838 26.1225C44.2236 26.0269 44.1939 25.9546 44.1822 25.9227C44.1704 25.8909 44.1726 25.8885 44.18 25.925C44.1961 26.0047 44.2197 26.1823 44.2197 26.488H50.2197ZM49.3835 22.9616C48.3368 21.2489 46.5392 20.878 45.2937 20.878V26.878C45.4074 26.878 45.297 26.8972 45.0732 26.8025C44.8082 26.6902 44.4895 26.4596 44.2638 26.0904L49.3835 22.9616ZM45.2937 20.878C44.0591 20.878 42.2404 21.2359 41.1858 22.9617L46.3055 26.0903C46.074 26.4691 45.749 26.6985 45.4891 26.8073C45.2708 26.8987 45.1686 26.878 45.2937 26.878V20.878ZM41.2058 22.9295C40.4864 24.0739 40.3497 25.4216 40.3497 26.488H46.3497C46.3497 26.1823 46.3733 26.0047 46.3894 25.925C46.3967 25.8885 46.3989 25.8909 46.3872 25.9227C46.3754 25.9546 46.3457 26.0269 46.2856 26.1225L41.2058 22.9295ZM40.3497 26.488V32.878H46.3497V26.488H40.3497ZM40.3497 32.878C40.3497 33.9683 40.4912 35.2906 41.1671 36.4272L46.3243 33.3608C46.4145 33.5124 46.4125 33.5811 46.3924 33.4788C46.3734 33.3818 46.3497 33.1906 46.3497 32.878H40.3497ZM41.1671 36.4272C42.2067 38.1757 44.0265 38.56 45.2937 38.56V32.56C45.1768 32.56 45.2893 32.54 45.5163 32.6377C45.7864 32.7539 46.104 32.9903 46.3243 33.3608L41.1671 36.4272ZM52.6748 22.42V19.42H49.7298L49.6753 22.3645L52.6748 22.42ZM54.6728 22.42L57.6042 21.782L57.0901 19.42H54.6728V22.42ZM57.2468 34.246L54.3154 34.884L60.1772 34.8883L57.2468 34.246ZM59.8388 22.42V19.42H57.4251L56.9084 21.7777L59.8388 22.42ZM61.8188 22.42L64.8183 22.3645L64.7638 19.42H61.8188V22.42ZM62.0888 37V40H65.1449L65.0883 36.9445L62.0888 37ZM60.4508 37L57.4511 37.0459L57.4964 40H60.4508V37ZM60.2888 26.416L63.2884 26.3701L57.3671 25.7353L60.2888 26.416ZM57.8228 37V40H60.2042L60.7445 37.6807L57.8228 37ZM56.6708 37L53.748 37.676L54.2855 40H56.6708V37ZM54.2228 26.416L57.1456 25.74L51.2231 26.3701L54.2228 26.416ZM54.0608 37V40H57.0152L57.0604 37.0459L54.0608 37ZM52.4048 37L49.4053 36.9445L49.3487 40H52.4048V37ZM52.6748 25.42H54.6728V19.42H52.6748V25.42ZM51.7414 23.058L54.3154 34.884L60.1782 33.608L57.6042 21.782L51.7414 23.058ZM60.1772 34.8883L62.7692 23.0623L56.9084 21.7777L54.3164 33.6037L60.1772 34.8883ZM59.8388 25.42H61.8188V19.42H59.8388V25.42ZM58.8193 22.4755L59.0893 37.0555L65.0883 36.9445L64.8183 22.3645L58.8193 22.4755ZM62.0888 34H60.4508V40H62.0888V34ZM63.4504 36.9541L63.2884 26.3701L57.2891 26.4619L57.4511 37.0459L63.4504 36.9541ZM57.3671 25.7353L54.9011 36.3193L60.7445 37.6807L63.2105 27.0967L57.3671 25.7353ZM57.8228 34H56.6708V40H57.8228V34ZM59.5936 36.324L57.1456 25.74L51.3 27.092L53.748 37.676L59.5936 36.324ZM51.2231 26.3701L51.0611 36.9541L57.0604 37.0459L57.2224 26.4619L51.2231 26.3701ZM54.0608 34H52.4048V40H54.0608V34ZM55.4043 37.0555L55.6743 22.4755L49.6753 22.3645L49.4053 36.9445L55.4043 37.0555ZM65.6016 22.42V19.42H62.6016V22.42H65.6016ZM67.5996 22.42H70.5996V19.42H67.5996V22.42ZM67.5996 37V40H70.5996V37H67.5996ZM65.6016 37H62.6016V40H65.6016V37ZM65.6016 25.42H67.5996V19.42H65.6016V25.42ZM64.5996 22.42V37H70.5996V22.42H64.5996ZM67.5996 34H65.6016V40H67.5996V34ZM68.6016 37V22.42H62.6016V37H68.6016ZM71.7405 35.884L69.2603 37.5719L69.2658 37.58L69.2714 37.588L71.7405 35.884ZM71.7225 23.536L69.2597 21.8228L69.2597 21.8228L71.7225 23.536ZM77.5905 23.356L75.244 25.2252L75.2536 25.2373L75.2633 25.2493L77.5905 23.356ZM78.4545 27.64V30.64H81.4545V27.64H78.4545ZM76.5285 27.64H73.5285V30.64H76.5285V27.64ZM76.4385 25.066L79.3976 24.5728L79.3976 24.5728L76.4385 25.066ZM75.9705 24.202L73.9636 26.4319L73.9905 26.4562L74.0181 26.4798L75.9705 24.202ZM73.5585 24.238L75.5193 26.5085L75.527 26.5018L73.5585 24.238ZM73.0365 25.21L75.9748 25.815L75.9765 25.8067L75.9782 25.7983L73.0365 25.21ZM73.0905 34.39L75.975 33.5658L75.975 33.5658L73.0905 34.39ZM73.6665 35.29L71.9764 37.7687L72.0019 37.786L72.0277 37.8028L73.6665 35.29ZM75.9525 35.218L77.9652 37.4426L77.9652 37.4426L75.9525 35.218ZM76.4205 34.282L73.4688 33.7453L73.4609 33.7889L73.4543 33.8326L76.4205 34.282ZM76.5285 31.582V28.582H73.5285V31.582H76.5285ZM78.4545 31.582H81.4545V28.582H78.4545V31.582ZM77.6265 36.01L75.1776 34.277L75.1724 34.2845L77.6265 36.01ZM74.7825 34.162C74.344 34.162 74.1483 34.0953 74.1039 34.0767C74.0864 34.0693 74.1014 34.0734 74.1322 34.0979C74.1641 34.1234 74.1914 34.1536 74.2095 34.18L69.2714 37.588C70.621 39.5435 72.7744 40.162 74.7825 40.162V34.162ZM74.2206 34.1961C74.0915 34.0064 73.8585 33.4864 73.8585 32.32H67.8585C67.8585 34.1776 68.2134 36.0336 69.2603 37.5719L74.2206 34.1961ZM73.8585 32.32V27.172H67.8585V32.32H73.8585ZM73.8585 27.172C73.8585 25.8595 74.1088 25.3589 74.1852 25.2492L69.2597 21.8228C68.1841 23.3691 67.8585 25.2925 67.8585 27.172H73.8585ZM74.1852 25.2492C74.1561 25.291 74.1186 25.3303 74.0801 25.3602C74.0433 25.3889 74.0261 25.393 74.0477 25.3843C74.1024 25.3621 74.3166 25.294 74.7825 25.294V19.294C72.8084 19.294 70.6207 19.8664 69.2597 21.8228L74.1852 25.2492ZM74.7825 25.294C75.1794 25.294 75.3617 25.3494 75.4042 25.3655C75.4208 25.3718 75.4022 25.3668 75.3642 25.3398C75.3247 25.3118 75.2817 25.2726 75.244 25.2252L79.9369 21.4868C78.584 19.7884 76.5808 19.294 74.7825 19.294V25.294ZM75.2633 25.2493C75.2302 25.2086 75.4545 25.4598 75.4545 26.488H81.4545C81.4545 24.7562 81.1027 22.9194 79.9176 21.4627L75.2633 25.2493ZM75.4545 26.488V27.64H81.4545V26.488H75.4545ZM78.4545 24.64H76.5285V30.64H78.4545V24.64ZM79.5285 27.64V26.614H73.5285V27.64H79.5285ZM79.5285 26.614C79.5285 25.8896 79.4986 25.1784 79.3976 24.5728L73.4793 25.5592C73.4983 25.6736 73.5285 25.9944 73.5285 26.614H79.5285ZM79.3976 24.5728C79.2342 23.5923 78.7638 22.6451 77.9228 21.9242L74.0181 26.4798C73.8694 26.3523 73.7376 26.1917 73.6386 26.0088C73.5415 25.8295 73.4977 25.6696 73.4793 25.5592L79.3976 24.5728ZM77.9773 21.9721C76.9188 21.0195 75.6181 20.878 74.8005 20.878V26.878C74.8841 26.878 74.8334 26.8879 74.6973 26.8502C74.5552 26.8108 74.2653 26.7035 73.9636 26.4319L77.9773 21.9721ZM74.8005 20.878C73.8809 20.878 72.631 21.0689 71.5899 21.9742L75.527 26.5018C75.283 26.714 75.0484 26.8096 74.9111 26.8494C74.7831 26.8865 74.7321 26.878 74.8005 26.878V20.878ZM71.5976 21.9675C70.7222 22.7236 70.279 23.7004 70.0947 24.6217L75.9782 25.7983C75.9715 25.832 75.9468 25.9338 75.8729 26.0714C75.796 26.2146 75.6796 26.37 75.5193 26.5085L71.5976 21.9675ZM70.0981 24.605C69.955 25.3002 69.9105 26.0825 69.9105 26.866H75.9105C75.9105 26.2575 75.9499 25.9358 75.9748 25.815L70.0981 24.605ZM69.9105 26.866V32.644H75.9105V26.866H69.9105ZM69.9105 32.644C69.9105 33.5006 69.9742 34.4031 70.2059 35.2142L75.975 33.5658C75.9764 33.5705 75.9573 33.5018 75.9396 33.3309C75.9225 33.1651 75.9105 32.9393 75.9105 32.644H69.9105ZM70.2059 35.2142C70.448 36.0616 70.9516 37.0699 71.9764 37.7687L75.3565 32.8113C75.8533 33.1501 75.9729 33.5584 75.975 33.5658L70.2059 35.2142ZM72.0277 37.8028C72.9661 38.4148 73.9901 38.56 74.8005 38.56V32.56C74.7421 32.56 74.7673 32.554 74.8518 32.5741C74.9397 32.595 75.1077 32.6483 75.3053 32.7772L72.0277 37.8028ZM74.8005 38.56C75.6866 38.56 76.9362 38.3736 77.9652 37.4426L73.9397 32.9934C74.2008 32.7572 74.4598 32.6466 74.6217 32.5986C74.7732 32.5536 74.848 32.56 74.8005 32.56V38.56ZM77.9652 37.4426C78.8184 36.6707 79.2423 35.6837 79.3866 34.7314L73.4543 33.8326C73.4645 33.7653 73.4937 33.6342 73.5752 33.4714C73.6594 33.3029 73.7819 33.1362 73.9397 32.9934L77.9652 37.4426ZM79.3721 34.8187C79.4909 34.1652 79.5285 33.42 79.5285 32.662H73.5285C73.5285 33.272 73.494 33.6068 73.4688 33.7453L79.3721 34.8187ZM79.5285 32.662V31.582H73.5285V32.662H79.5285ZM76.5285 34.582H78.4545V28.582H76.5285V34.582ZM75.4545 31.582V32.662H81.4545V31.582H75.4545ZM75.4545 32.662C75.4545 33.7962 75.2287 34.2048 75.1776 34.277L80.0753 37.743C81.1282 36.2552 81.4545 34.4318 81.4545 32.662H75.4545ZM75.1724 34.2845C75.2101 34.2307 75.258 34.1809 75.3084 34.1418C75.3574 34.104 75.3888 34.0916 75.3842 34.0935C75.3638 34.1017 75.1934 34.162 74.7825 34.162V40.162C76.6531 40.162 78.7572 39.6176 80.0805 37.7355L75.1724 34.2845ZM82.1921 36.028L79.8964 37.9593L79.9054 37.9699L79.9144 37.9804L82.1921 36.028ZM81.1301 32.914L80.3481 30.0177L78.0022 30.6511L78.1346 33.0774L81.1301 32.914ZM82.9301 32.428L85.924 32.2361L85.6893 28.5756L82.1481 29.5317L82.9301 32.428ZM83.4701 34.696L80.8094 36.0818L80.8206 36.1034L80.8322 36.1248L83.4701 34.696ZM86.1881 35.128L83.9803 33.0968L83.9767 33.1008L86.1881 35.128ZM86.2241 32.356L88.7551 30.7454L88.7551 30.7454L86.2241 32.356ZM85.0181 31.042L83.0333 33.2915L83.0414 33.2987L83.0496 33.3058L85.0181 31.042ZM82.5701 28.882L84.555 26.6325L84.5495 26.6277L82.5701 28.882ZM81.4901 27.496L78.7327 28.6778L78.7499 28.7178L78.7682 28.7574L81.4901 27.496ZM82.0841 23.176L84.1626 25.3393L84.1626 25.3393L82.0841 23.176ZM88.2581 26.056L89.0424 28.9517L91.4801 28.2915L91.2451 25.7768L88.2581 26.056ZM86.5301 26.524L83.5375 26.7347L83.7938 30.3732L87.3144 29.4197L86.5301 26.524ZM86.0261 24.562L83.4132 26.036L83.4358 26.076L83.4596 26.1154L86.0261 24.562ZM83.3981 24.274L85.4718 26.4419L85.4959 26.4189L85.5194 26.3953L83.3981 24.274ZM83.2001 26.56L80.4956 27.8582L80.506 27.88L80.5168 27.9016L83.2001 26.56ZM83.9381 27.442L85.9148 25.1853L85.9059 25.1775L85.8969 25.1698L83.9381 27.442ZM86.4041 29.602L88.3946 27.3574L88.3877 27.3513L88.3808 27.3453L86.4041 29.602ZM87.9161 31.438L85.3027 32.911L85.3128 32.9289L85.3231 32.9467L87.9161 31.438ZM87.5201 36.226L89.601 38.387L89.601 38.387L87.5201 36.226ZM85.0001 34.162C84.6934 34.162 84.5474 34.1145 84.5035 34.0968C84.4748 34.0852 84.4766 34.0835 84.4699 34.0756L79.9144 37.9804C81.2607 39.5511 83.1191 40.162 85.0001 40.162V34.162ZM84.4878 34.0967C84.3922 33.983 84.1741 33.6389 84.1257 32.7506L78.1346 33.0774C78.2301 34.8291 78.7201 36.561 79.8964 37.9593L84.4878 34.0967ZM81.9121 35.8103L83.7121 35.3243L82.1481 29.5317L80.3481 30.0177L81.9121 35.8103ZM79.9363 32.6199C80.012 33.8021 80.2506 35.009 80.8094 36.0818L86.1309 33.3102C86.0896 33.231 85.9682 32.9259 85.924 32.2361L79.9363 32.6199ZM80.8322 36.1248C81.2241 36.8483 81.8087 37.5029 82.6115 37.9563C83.4018 38.4026 84.2368 38.56 85.0001 38.56V32.56C85.0554 32.56 85.2814 32.5734 85.5618 32.7317C85.8546 32.8971 86.0282 33.1197 86.108 33.2672L80.8322 36.1248ZM85.0001 38.56C86.0609 38.56 87.3881 38.2586 88.3996 37.1552L83.9767 33.1008C84.1959 32.8617 84.449 32.7122 84.6679 32.6326C84.8698 32.5592 84.9993 32.56 85.0001 32.56V38.56ZM88.3959 37.1592C89.3388 36.1343 89.6021 34.8841 89.6021 33.85H83.6021C83.6021 33.9199 83.5894 33.5217 83.9803 33.0968L88.3959 37.1592ZM89.6021 33.85C89.6021 32.8366 89.3881 31.74 88.7551 30.7454L83.6931 33.9666C83.6321 33.8708 83.6073 33.7941 83.5993 33.7623C83.5922 33.7345 83.6021 33.7577 83.6021 33.85H89.6021ZM88.7551 30.7454C88.2868 30.0095 87.6495 29.3545 86.9867 28.7782L83.0496 33.3058C83.4908 33.6895 83.6574 33.9105 83.6931 33.9666L88.7551 30.7454ZM87.003 28.7925L84.555 26.6325L80.5853 31.1315L83.0333 33.2915L87.003 28.7925ZM84.5495 26.6277C84.3077 26.4153 84.2319 26.2774 84.2121 26.2346L78.7682 28.7574C79.2044 29.6986 79.8486 30.4847 80.5907 31.1363L84.5495 26.6277ZM84.2476 26.3142C84.2332 26.2808 84.1661 26.0948 84.1661 25.66H78.1661C78.1661 26.6652 78.315 27.7032 78.7327 28.6778L84.2476 26.3142ZM84.1661 25.66C84.1661 25.4086 84.2024 25.2974 84.2096 25.278C84.2129 25.2691 84.2109 25.2768 84.1998 25.294C84.1884 25.3115 84.1748 25.3276 84.1626 25.3393L80.0056 21.0127C78.661 22.3046 78.1661 23.9993 78.1661 25.66H84.1661ZM84.1626 25.3393C84.1469 25.3544 84.1354 25.3546 84.166 25.3438C84.2072 25.3293 84.3337 25.294 84.5861 25.294V19.294C82.9542 19.294 81.3051 19.7642 80.0056 21.0127L84.1626 25.3393ZM84.5861 25.294C84.9041 25.294 85.0604 25.3371 85.1072 25.3535C85.1386 25.3646 85.0915 25.3516 85.0328 25.2905L89.3594 21.1335C88.0264 19.746 86.2532 19.294 84.5861 19.294V25.294ZM85.0328 25.2905C84.9614 25.2162 85.183 25.3925 85.2711 26.3352L91.2451 25.7768C91.0932 24.1515 90.6068 22.4318 89.3594 21.1335L85.0328 25.2905ZM87.4739 23.1603L85.7459 23.6283L87.3144 29.4197L89.0424 28.9517L87.4739 23.1603ZM89.5227 26.3133C89.4473 25.2419 89.2204 24.0458 88.5926 23.0086L83.4596 26.1154C83.4115 26.0359 83.424 26.0261 83.4535 26.1409C83.4824 26.2534 83.5171 26.4445 83.5375 26.7347L89.5227 26.3133ZM88.6391 23.088C87.6836 21.3943 85.9953 20.86 84.5861 20.86V26.86C84.6115 26.86 84.4277 26.8658 84.1535 26.7321C83.8432 26.5808 83.578 26.3282 83.4132 26.036L88.6391 23.088ZM84.5861 20.86C83.5399 20.86 82.2788 21.1507 81.2768 22.1527L85.5194 26.3953C85.3145 26.6003 85.0858 26.728 84.8894 26.7964C84.7064 26.8602 84.5896 26.86 84.5861 26.86V20.86ZM81.3245 22.1061C80.2589 23.1253 79.9841 24.4368 79.9841 25.462H85.9841C85.9841 25.4312 85.9853 25.9507 85.4718 26.4419L81.3245 22.1061ZM79.9841 25.462C79.9841 26.2145 80.1081 27.051 80.4956 27.8582L85.9047 25.2618C86.0042 25.469 85.9841 25.5735 85.9841 25.462H79.9841ZM80.5168 27.9016C80.897 28.662 81.4491 29.2572 81.9793 29.7142L85.8969 25.1698C85.8608 25.1386 85.8349 25.1142 85.8176 25.0968C85.8002 25.0794 85.7929 25.0708 85.7934 25.0713C85.7939 25.0719 85.8037 25.0837 85.8194 25.1071C85.8352 25.1306 85.858 25.1676 85.8834 25.2184L80.5168 27.9016ZM81.9614 29.6987L84.4274 31.8587L88.3808 27.3453L85.9148 25.1853L81.9614 29.6987ZM84.4137 31.8466C84.8307 32.2164 85.1127 32.5741 85.3027 32.911L90.5296 29.965C89.9755 28.9819 89.2495 28.1156 88.3946 27.3574L84.4137 31.8466ZM85.3231 32.9467C85.4144 33.1036 85.4921 33.3235 85.4921 33.688H91.4921C91.4921 32.3725 91.1859 31.0924 90.5092 29.9293L85.3231 32.9467ZM85.4921 33.688C85.4921 33.9195 85.4572 34.0254 85.4476 34.0506C85.4426 34.0636 85.4405 34.0655 85.443 34.0617C85.4455 34.0579 85.4459 34.0586 85.4392 34.065L89.601 38.387C90.9453 37.0925 91.4921 35.4064 91.4921 33.688H85.4921ZM85.4392 34.065C85.411 34.0922 85.3915 34.1039 85.3596 34.1157C85.3204 34.1303 85.2129 34.162 85.0001 34.162V40.162C86.6849 40.162 88.3112 39.6291 89.601 38.387L85.4392 34.065ZM92.8419 23.932H95.8419V20.932H92.8419V23.932ZM90.3759 23.932H87.3759V26.932H90.3759V23.932ZM90.3759 22.42V19.42H87.3759V22.42H90.3759ZM97.2699 22.42H100.27V19.42H97.2699V22.42ZM97.2699 23.932V26.932H100.27V23.932H97.2699ZM94.8759 23.932V20.932H91.8759V23.932H94.8759ZM94.8759 37V40H97.8759V37H94.8759ZM92.8419 37H89.8419V40H92.8419V37ZM92.8419 20.932H90.3759V26.932H92.8419V20.932ZM93.3759 23.932V22.42H87.3759V23.932H93.3759ZM90.3759 25.42H97.2699V19.42H90.3759V25.42ZM94.2699 22.42V23.932H100.27V22.42H94.2699ZM97.2699 20.932H94.8759V26.932H97.2699V20.932ZM91.8759 23.932V37H97.8759V23.932H91.8759ZM94.8759 34H92.8419V40H94.8759V34ZM95.8419 37V23.932H89.8419V37H95.8419ZM101.213 36.55L99.4551 38.9807L99.4672 38.9894L99.4794 38.9981L101.213 36.55ZM100.043 34.84L97.1661 35.6891L97.1661 35.6891L100.043 34.84ZM99.7195 22.42V19.42H96.7195V22.42H99.7195ZM101.663 22.42H104.663V19.42H101.663V22.42ZM102.041 34.696L99.293 35.8985L99.3034 35.9223L99.3143 35.946L102.041 34.696ZM105.155 34.696L102.428 33.446L102.417 33.4697L102.407 33.4935L105.155 34.696ZM105.551 22.42V19.42H102.551V22.42H105.551ZM107.477 22.42H110.477V19.42H107.477V22.42ZM107.153 34.84L104.276 33.9909L104.276 33.9909L107.153 34.84ZM105.983 36.55L104.225 34.1193L104.225 34.1193L105.983 36.55ZM103.607 34.162C102.944 34.162 102.837 34.0233 102.948 34.1019L99.4794 38.9981C100.742 39.8927 102.231 40.162 103.607 40.162V34.162ZM102.972 34.1193C102.967 34.116 102.968 34.1159 102.971 34.1188C102.974 34.1218 102.975 34.1237 102.974 34.1224C102.974 34.1221 102.949 34.0874 102.921 33.9909L97.1661 35.6891C97.5508 36.9925 98.301 38.1458 99.4551 38.9807L102.972 34.1193ZM102.921 33.9909C102.814 33.6275 102.719 33.0188 102.719 32.086H96.7195C96.7195 33.3612 96.8414 34.5885 97.1661 35.6891L102.921 33.9909ZM102.719 32.086V22.42H96.7195V32.086H102.719ZM99.7195 25.42H101.663V19.42H99.7195V25.42ZM98.6635 22.42V32.176H104.663V22.42H98.6635ZM98.6635 32.176C98.6635 33.4277 98.7942 34.7582 99.293 35.8985L104.79 33.4935C104.799 33.515 104.761 33.4328 104.725 33.189C104.689 32.9523 104.663 32.6206 104.663 32.176H98.6635ZM99.3143 35.946C99.696 36.7789 100.322 37.4963 101.182 37.9707C102.003 38.4236 102.862 38.56 103.607 38.56V32.56C103.573 32.56 103.781 32.5524 104.08 32.7173C104.418 32.9037 104.651 33.1891 104.769 33.446L99.3143 35.946ZM103.607 38.56C104.351 38.56 105.216 38.4243 106.042 37.9636C106.909 37.4792 107.533 36.7457 107.904 35.8985L102.407 33.4935C102.526 33.2223 102.766 32.9208 103.117 32.7244C103.427 32.5517 103.644 32.56 103.607 32.56V38.56ZM107.883 35.946C108.413 34.7879 108.551 33.4373 108.551 32.176H102.551C102.551 32.6154 102.525 32.9399 102.489 33.1683C102.452 33.4034 102.415 33.4759 102.428 33.446L107.883 35.946ZM108.551 32.176V22.42H102.551V32.176H108.551ZM105.551 25.42H107.477V19.42H105.551V25.42ZM104.477 22.42V32.086H110.477V22.42H104.477ZM104.477 32.086C104.477 33.0188 104.383 33.6275 104.276 33.9909L110.031 35.6891C110.356 34.5885 110.477 33.3612 110.477 32.086H104.477ZM104.276 33.9909C104.248 34.0874 104.223 34.1221 104.223 34.1224C104.222 34.1237 104.223 34.1218 104.226 34.1188C104.229 34.1159 104.23 34.116 104.225 34.1193L107.742 38.9807C108.896 38.1458 109.646 36.9925 110.031 35.6891L104.276 33.9909ZM104.225 34.1193C104.295 34.0685 104.313 34.0794 104.218 34.1038C104.118 34.1296 103.924 34.162 103.607 34.162V40.162C104.978 40.162 106.478 39.8949 107.742 38.9807L104.225 34.1193ZM110.789 22.42V19.42H107.789V22.42H110.789ZM117.287 23.5L115.057 25.5069L115.066 25.5171L115.075 25.5272L117.287 23.5ZM117.305 35.83L114.983 33.9303L114.98 33.9342L117.305 35.83ZM110.789 37H107.789V40H110.789V37ZM115.505 35.128L113.56 32.8443L113.538 32.8624L113.517 32.881L115.505 35.128ZM116.099 34.012L113.144 33.4949L113.139 33.5253L113.134 33.5558L116.099 34.012ZM116.063 25.228L113.131 25.862L113.141 25.909L113.152 25.9556L116.063 25.228ZM115.433 24.256L113.769 26.7522L113.801 26.7739L113.834 26.7947L115.433 24.256ZM112.823 23.932V20.932H109.823V23.932H112.823ZM112.823 35.542H109.823V38.542H112.823V35.542ZM110.789 25.42H113.957V19.42H110.789V25.42ZM113.957 25.42C114.53 25.42 114.87 25.4877 115.043 25.5437C115.199 25.5943 115.152 25.612 115.057 25.5069L119.517 21.4931C118.028 19.8392 115.864 19.42 113.957 19.42V25.42ZM115.075 25.5272C115.009 25.4548 115.277 25.6888 115.277 26.866H121.277C121.277 24.9952 120.885 22.9852 119.498 21.4728L115.075 25.5272ZM115.277 26.866V32.23H121.277V26.866H115.277ZM115.277 32.23C115.277 33.5186 115.003 33.9054 114.983 33.9303L119.627 37.7297C120.902 36.1706 121.277 34.1574 121.277 32.23H115.277ZM114.98 33.9342C115.043 33.8573 115.087 33.8583 114.997 33.8914C114.884 33.9332 114.615 34 114.119 34V40C116.065 40 118.193 39.4877 119.63 37.7258L114.98 33.9342ZM114.119 34H110.789V40H114.119V34ZM113.789 37V22.42H107.789V37H113.789ZM113.975 38.542C114.943 38.542 116.36 38.3773 117.493 37.375L113.517 32.881C113.787 32.642 114.03 32.5629 114.105 32.5426C114.175 32.5236 114.148 32.542 113.975 32.542V38.542ZM117.45 37.4117C118.385 36.6153 118.896 35.5622 119.064 34.4682L113.134 33.5558C113.143 33.4973 113.17 33.3786 113.248 33.2325C113.328 33.0821 113.437 32.9484 113.56 32.8443L117.45 37.4117ZM119.054 34.5291C119.184 33.7846 119.225 32.8529 119.225 31.852H113.225C113.225 32.7711 113.182 33.2794 113.144 33.4949L119.054 34.5291ZM119.225 31.852V27.118H113.225V31.852H119.225ZM119.225 27.118C119.225 26.2161 119.172 25.2932 118.973 24.5004L113.152 25.9556C113.152 25.9552 113.154 25.9621 113.157 25.977C113.16 25.9919 113.164 26.0132 113.168 26.0415C113.177 26.099 113.187 26.1777 113.195 26.2807C113.213 26.4892 113.225 26.765 113.225 27.118H119.225ZM118.995 24.594C118.763 23.52 118.164 22.4304 117.031 21.7173L113.834 26.7947C113.625 26.6626 113.446 26.484 113.316 26.2837C113.192 26.0924 113.146 25.9335 113.131 25.862L118.995 24.594ZM117.097 21.7598C116.032 21.0496 114.804 20.932 113.921 20.932V26.932C114.014 26.932 114.082 26.9357 114.129 26.9399C114.175 26.9442 114.192 26.9482 114.183 26.9464C114.175 26.9447 114.132 26.9349 114.063 26.908C113.994 26.8809 113.89 26.8329 113.769 26.7522L117.097 21.7598ZM113.921 20.932H112.823V26.932H113.921V20.932ZM109.823 23.932V35.542H115.823V23.932H109.823ZM112.823 38.542H113.975V32.542H112.823V38.542ZM121.559 22.42V19.42H118.559V22.42H121.559ZM123.557 22.42H126.557V19.42H123.557V22.42ZM123.557 37V40H126.557V37H123.557ZM121.559 37H118.559V40H121.559V37ZM121.559 25.42H123.557V19.42H121.559V25.42ZM120.557 22.42V37H126.557V22.42H120.557ZM123.557 34H121.559V40H123.557V34ZM124.559 37V22.42H118.559V37H124.559ZM127.734 35.956L125.334 37.756L125.349 37.7758L125.364 37.7954L127.734 35.956ZM127.752 23.464L125.409 21.5899L125.409 21.5899L127.752 23.464ZM133.854 23.482L131.48 25.3163L131.496 25.3363L131.511 25.3561L133.854 23.482ZM133.854 35.938L131.471 34.1156L131.471 34.1156L133.854 35.938ZM132.342 34.894L134.921 36.4272L134.921 36.4272L132.342 34.894ZM132.342 24.526L129.782 26.0904L129.792 26.1065L129.802 26.1225L132.342 24.526ZM129.264 24.526L131.804 26.1225L131.814 26.1065L131.824 26.0903L129.264 24.526ZM129.264 34.894L131.843 33.3608L131.843 33.3608L129.264 34.894ZM130.812 34.162C130.367 34.162 130.144 34.0978 130.066 34.0673C130.013 34.0466 130.057 34.0564 130.104 34.1166L125.364 37.7954C126.761 39.5955 128.852 40.162 130.812 40.162V34.162ZM130.134 34.156C130.064 34.0629 129.816 33.6265 129.816 32.428H123.816C123.816 34.3015 124.18 36.2171 125.334 37.756L130.134 34.156ZM129.816 32.428V26.902H123.816V32.428H129.816ZM129.816 26.902C129.816 25.7372 130.066 25.3736 130.095 25.3381L125.409 21.5899C124.19 23.1144 123.816 25.0428 123.816 26.902H129.816ZM130.095 25.3381C130.042 25.4034 129.997 25.4113 130.056 25.3887C130.14 25.3569 130.367 25.294 130.812 25.294V19.294C128.883 19.294 126.812 19.8363 125.409 21.5899L130.095 25.3381ZM130.812 25.294C131.253 25.294 131.471 25.3574 131.543 25.3855C131.575 25.3978 131.572 25.4007 131.55 25.3846C131.526 25.3675 131.501 25.3431 131.48 25.3163L136.228 21.6477C134.838 19.8496 132.75 19.294 130.812 19.294V25.294ZM131.511 25.3561C131.543 25.3951 131.79 25.756 131.79 26.902H137.79C137.79 25.048 137.413 23.1289 136.197 21.6079L131.511 25.3561ZM131.79 26.902V32.446H137.79V26.902H131.79ZM131.79 32.446C131.79 33.5976 131.545 34.0186 131.471 34.1156L136.237 37.7604C137.411 36.2254 137.79 34.3184 137.79 32.446H131.79ZM131.471 34.1156C131.482 34.1009 131.499 34.0837 131.517 34.0703C131.534 34.0576 131.535 34.0611 131.506 34.0728C131.44 34.0992 131.235 34.162 130.812 34.162V40.162C132.783 40.162 134.854 39.5683 136.237 37.7603L131.471 34.1156ZM130.812 38.56C132.09 38.56 133.889 38.1621 134.921 36.4272L129.763 33.3608C129.978 32.9999 130.289 32.7624 130.564 32.6428C130.797 32.5416 130.917 32.56 130.812 32.56V38.56ZM134.921 36.4272C135.596 35.2906 135.738 33.9683 135.738 32.878H129.738C129.738 33.1906 129.714 33.3818 129.695 33.4788C129.675 33.5811 129.673 33.5124 129.763 33.3608L134.921 36.4272ZM135.738 32.878V26.488H129.738V32.878H135.738ZM135.738 26.488C135.738 25.4216 135.601 24.0739 134.882 22.9295L129.802 26.1225C129.742 26.0269 129.712 25.9546 129.7 25.9227C129.689 25.8909 129.691 25.8885 129.698 25.925C129.714 26.0047 129.738 26.1823 129.738 26.488H135.738ZM134.902 22.9616C133.855 21.2489 132.057 20.878 130.812 20.878V26.878C130.926 26.878 130.815 26.8972 130.591 26.8025C130.326 26.6902 130.008 26.4596 129.782 26.0904L134.902 22.9616ZM130.812 20.878C129.577 20.878 127.759 21.2359 126.704 22.9617L131.824 26.0903C131.592 26.4691 131.267 26.6985 131.007 26.8073C130.789 26.8987 130.687 26.878 130.812 26.878V20.878ZM126.724 22.9295C126.005 24.0739 125.868 25.4216 125.868 26.488H131.868C131.868 26.1823 131.892 26.0047 131.908 25.925C131.915 25.8885 131.917 25.8909 131.905 25.9227C131.894 25.9546 131.864 26.0269 131.804 26.1225L126.724 22.9295ZM125.868 26.488V32.878H131.868V26.488H125.868ZM125.868 32.878C125.868 33.9683 126.009 35.2906 126.685 36.4272L131.843 33.3608C131.933 33.5124 131.931 33.5811 131.911 33.4788C131.892 33.3818 131.868 33.1906 131.868 32.878H125.868ZM126.685 36.4272C127.725 38.1757 129.545 38.56 130.812 38.56V32.56C130.695 32.56 130.808 32.54 131.035 32.6377C131.305 32.7539 131.622 32.9903 131.843 33.3608L126.685 36.4272Z" fill="#D98A2D"/>
</g>
</g>
<defs>
<clipPath id="clip0">
<rect width="60" height="60" fill="white"/>
</clipPath>
</defs>
</svg>
